PathFileType	4	(X/Y/Z)	D:\TRACE\spotREDO_2-26-24\spot_justBody_Motion_2_3-v60.trc
DataRate	CameraRate	NumFrames	NumMarkers	Units	OrigDataRate	OrigDataStartFrame	OrigNumFrames
100.00	100.00	      28	9	mm	100.00	5251	      7000
Frame#	Time	front left toe			Front right toe			aft left toe			aft right toe			Arm			FL body			FR body			AL Body			AR Body			
		X1	Y1	Z1	X2	Y2	Z2	X3	Y3	Z3	X4	Y4	Z4	X5	Y5	Z5	X6	Y6	Z6	X7	Y7	Z7	X8	Y8	Z8	X9	Y9	Z9	

5251	52.500	-114.91258	34.29285	-164.17581	428.33997	44.00018	-180.70486	-179.51993	3.14535	334.71045	366.96115	11.51244	288.01755	122.81329	831.95215	-340.38763	34.89206	572.86835	-333.49335	190.95828	574.69592	-331.42624	18.92266	530.29791	548.85370	165.19754	529.11237	553.18054	
5252	52.510	-115.91460	33.57749	-164.31673	427.12753	43.59771	-180.84035	-180.63524	3.55242	334.39371	365.77289	11.87459	287.69443	122.44798	832.73218	-339.31879	35.13459	573.48419	-332.88068	190.78543	575.54340	-330.90735	15.47535	530.96484	549.12781	164.15201	529.12927	553.55322	
5253	52.520	-116.91330	33.57198	-164.65297	426.60825	43.22940	-180.98485	-181.63661	4.03955	334.31390	364.92291	12.19232	287.68793	122.02287	833.67950	-338.50119	34.94047	574.02020	-332.37177	190.71452	576.06348	-329.66528	14.75322	530.88763	549.93494	163.59445	529.19739	554.08105	
5254	52.530	-117.95331	33.45133	-164.97534	424.39185	41.78632	-181.81726	-182.70023	4.54848	334.36136	364.06302	12.29765	287.61441	121.18491	834.41382	-337.86081	34.56448	574.69379	-331.56796	190.30081	577.08539	-329.39526	14.72426	530.70111	550.27881	162.77579	529.35193	554.65155	
5255	52.540	-119.11676	33.16835	-165.16629	422.91043	41.39025	-182.28912	-183.67320	5.07468	334.10583	362.67206	12.82581	287.41742	120.41505	834.81738	-337.17120	34.09433	575.10608	-331.26675	190.20792	577.81677	-328.74863	12.77133	531.26758	550.76306	162.25050	529.80621	555.34192	
5256	52.550	-120.22469	32.88423	-165.44121	423.30551	42.00195	-181.78679	-184.88872	5.73158	333.83008	361.74362	13.18700	287.33371	119.65308	835.23029	-336.71606	33.74593	575.60504	-330.87646	189.86403	578.31073	-328.06851	12.09265	531.54883	551.47388	161.51740	530.16260	555.86121	
5257	52.560	-121.22659	32.58562	-165.74396	421.01102	40.70505	-182.76483	-185.74022	6.18308	333.71448	360.50766	13.53639	287.02048	118.47295	835.82501	-335.70087	33.49991	575.98334	-330.03110	189.25644	578.93500	-327.51190	12.46931	531.60199	552.16455	161.36005	530.49835	556.72021	
5258	52.570	-122.22136	32.15207	-166.02988	420.03683	40.34982	-183.07074	-187.01591	6.87658	333.68433	359.62070	14.09231	286.97287	118.02430	836.36792	-334.97107	32.90393	576.33325	-329.39496	188.86237	579.57739	-326.65225	11.49553	531.87909	552.59796	160.92601	530.86230	557.30542	
5259	52.580	-123.28464	32.16591	-166.22841	420.26294	40.83834	-182.62936	-187.96823	7.62941	333.55783	358.56546	14.39877	286.72400	117.38930	836.86981	-334.17822	32.50772	576.75525	-328.72330	188.31345	580.90112	-326.61005	11.37800	531.93231	553.48016	160.98747	531.08563	558.03107	
5260	52.590	-124.67095	31.74385	-166.52281	419.05832	40.38536	-182.92407	-189.02715	8.25250	333.14130	357.16589	14.73278	286.52689	116.39332	837.54327	-333.44339	31.94175	577.24750	-327.99429	187.60614	581.33008	-326.05582	10.94774	531.92920	553.96460	160.72226	531.28284	558.83905	
5261	52.600	-125.46766	31.37760	-166.83197	416.51596	39.01929	-183.91962	-190.05547	8.71558	333.07901	356.44412	15.19325	286.26450	115.38213	837.87213	-332.80789	31.39080	577.40344	-327.27585	187.16194	581.82019	-325.33408	10.55819	531.94464	554.47858	160.14978	531.51111	559.38556	
5262	52.610	-126.64678	31.07775	-167.17693	415.89621	38.72797	-184.04698	-191.16412	9.24922	332.81412	355.08609	15.70615	286.15652	114.68442	838.28784	-332.17123	30.96903	577.66077	-326.81213	186.80812	582.65900	-324.96951	10.31205	531.90314	555.31995	159.52840	531.76270	559.45074	
5263	52.620	-127.77817	30.70419	-167.43097	414.28979	37.92654	-184.71556	-192.37219	9.91382	332.65540	353.99084	16.01624	285.72723	113.75115	838.73846	-331.41977	30.09607	578.11005	-326.13254	185.92883	582.81372	-324.06607	10.27124	531.87500	555.97131	159.37050	531.75732	560.43140	
5264	52.630	-128.95660	30.34446	-167.63232	415.01862	38.63469	-184.08809	-193.38887	10.67953	332.41931	353.17569	16.53938	285.58377	112.89220	838.90302	-330.84277	29.66203	578.24908	-325.47964	185.55673	583.13818	-323.63821	9.71485	532.09137	556.36304	159.08881	532.09222	560.98242	
5265	52.640	-129.81171	30.20908	-167.82874	413.33966	37.84124	-184.64516	-194.42650	11.33198	332.34119	351.80392	17.01515	285.24506	112.03780	839.14819	-330.29047	28.94547	578.42395	-324.92105	184.76500	583.41907	-322.98648	9.68204	532.23920	557.32098	158.85260	532.34296	561.67938	
5266	52.650	-131.14369	29.77939	-168.06792	412.55136	37.68142	-184.69037	-195.56561	12.19785	332.12775	350.94971	17.30947	285.18103	111.19214	839.47931	-329.86688	28.27509	578.55688	-324.48547	184.24185	583.59436	-322.40607	9.67601	532.34906	557.88281	158.39496	532.51892	561.80786	
5267	52.660	-132.08679	29.33924	-168.46742	411.63339	37.22677	-184.86800	-196.55243	12.83185	332.11545	349.63132	17.89369	284.84265	110.44939	839.50482	-329.17972	27.92505	578.46234	-323.71979	183.49847	583.62292	-321.94113	9.45644	532.46497	558.39276	157.86424	532.85370	562.32379	
5268	52.670	-133.46785	29.18909	-168.81548	410.42126	36.66520	-185.11697	-197.53830	13.22446	331.56705	349.05795	18.53248	284.89294	109.75459	839.35095	-328.73294	27.29950	578.37305	-322.78079	182.87044	583.65332	-321.41803	8.95949	532.64215	559.18884	157.75729	533.12848	563.69824	
5269	52.680	-134.35335	28.73321	-169.04048	408.12732	35.49453	-186.10252	-198.67470	13.76546	331.52078	347.51947	18.90045	284.46915	108.98293	839.41577	-328.39435	26.90803	578.36859	-322.44876	182.37170	583.75031	-320.89395	8.75712	532.88751	559.85638	157.38033	533.35657	563.90344	
5270	52.690	-135.54599	28.54174	-169.28891	407.14853	35.20352	-186.30077	-199.91313	14.63026	331.21561	346.39099	19.25566	284.43140	108.20576	839.35876	-327.82874	25.89676	578.41565	-321.70889	181.63188	583.70508	-320.06580	8.67934	533.25482	560.32166	156.76503	533.79364	564.17316	
5271	52.700	-136.51549	28.00453	-169.57886	406.04764	34.77733	-186.69240	-201.46439	16.09253	330.99271	345.47952	19.64422	284.25168	107.78851	839.19128	-327.37006	25.56545	578.24280	-321.11948	181.16417	583.73175	-319.82053	8.40447	533.56946	561.05499	156.42465	534.05096	564.83990	
5272	52.710	-137.69463	27.81641	-169.80733	404.86786	34.25705	-186.99655	-202.65953	16.77901	330.63031	344.22800	20.17027	283.92877	107.33720	838.98346	-326.75876	25.04260	578.16565	-320.69626	180.45042	583.61823	-319.27692	7.78522	533.73285	561.60223	156.01082	534.26538	565.38409	
5273	52.720	-138.55785	27.26852	-170.14980	404.95712	33.94696	-187.08868	-202.92899	16.49155	330.56284	343.44797	20.71600	283.81799	106.85008	838.83374	-326.18491	24.26714	577.98669	-320.24692	180.07828	583.32239	-318.55453	7.46690	533.84430	562.23029	155.54462	534.45703	565.96411	
5274	52.730	-139.80904	26.75671	-170.20790	403.60760	33.41810	-187.43730	-204.74127	17.91863	330.31268	342.12323	21.18012	283.44608	106.15675	838.68646	-325.87140	23.87664	577.69080	-319.73639	179.68951	583.20319	-318.10229	7.09133	534.12238	563.02814	155.02966	534.84625	566.65887	
5275	52.740	-140.73923	26.56603	-170.55109	402.57849	32.74289	-187.43672	-205.17905	18.02984	329.91934	340.97391	21.46640	283.37781	105.57986	838.40399	-325.54596	23.21968	577.26740	-318.88559	179.00734	583.01727	-317.49963	6.43937	534.42023	563.54999	154.54150	535.31470	567.17139	
5276	52.750	-141.84042	26.20383	-170.93799	401.55423	32.40278	-187.72929	-206.07722	18.59001	329.75876	340.18201	22.23624	283.19031	105.06228	838.01978	-325.03503	22.36396	577.28180	-319.02731	178.38341	582.62219	-316.99423	5.84671	534.86877	563.86420	153.94597	535.63611	567.63855	
5277	52.760	-142.83775	25.96728	-171.22485	399.80908	31.22938	-188.46638	-207.30928	19.25653	329.63754	338.87286	22.46920	283.02527	104.49182	837.73694	-324.77979	22.35423	576.80035	-317.94049	178.18236	582.34119	-316.32617	5.49742	535.30750	564.64355	153.57883	535.88507	568.37512	
5278	52.770	-144.05702	25.58141	-171.44846	398.83209	30.82150	-188.69521	-208.91394	20.82410	329.22272	337.67325	23.10273	282.61557	103.85847	837.47461	-324.54004	21.78701	576.41815	-317.41730	177.52852	581.96838	-315.73282	4.79946	535.64679	565.18469	152.87328	536.31055	568.89508	
